<svg xmlns="http://www.w3.org/2000/svg" width="129.274" height="42.211" viewBox="0 0 129.274 42.211"><defs><style>.a{opacity:0.3;}.b{fill:#040217;}</style></defs><g class="a"><path class="b" d="M30.582,22.976s8.4-.756,10.723-.953c-1.2,12.568-3.869,17.4-9.194,20.84-.77.44-2.623,1.432-2.454,1.753.242.765,3.515,1.2,4.144.579a19.838,19.838,0,0,0,6.708-8.022c.566,3.738,2.489,4.655,3.5,4.983a4.619,4.619,0,0,0,3.777-.666,10.527,10.527,0,0,0,3.131-3.41c-.04.894-.379,6.04.042,6.262a3.38,3.38,0,0,0,2.618-.222c.212-.545.956-4.069,1.066-4.449,2.99-8,4.446-10.072,5.365-11.2.536-.72.642-.017.63.132s-.124,6.907-.124,6.907c0,3.411.782,5.184,2.343,6.126,1.258.761,2.949.74,4.991-.246,2.169,2.652,4.991,3.612,7.563,1.987,2.905-1.9,5.154-8.006,5.248-8.587s-.692-.964-.876-.62c-.548,1.449-3.332,5.758-5.319,7.077a2.479,2.479,0,0,1-2.079.311,5.794,5.794,0,0,1-2.272-1.435c7.8-5.98,7.072-15.153,1.717-15.331-7.28.269-5.764,12.7-5.3,14.234-1.894.658-2.371.388-2.5.175-.768-.894-.664-4.563-.582-7.8,0-.026.062-3.521.062-3.521a2.967,2.967,0,0,0-.857-2.417,1.992,1.992,0,0,0-1.744-.5c-1.716.321-3.856,3.326-6.86,10.072.025-1.145.054-3.1.054-3.193,4.739-7.972,6.157-15.206,6.157-18.442v-.5c0-1.492-.067-2.686-.9-3.5a2.88,2.88,0,0,0-2.881-.62c-3.867,1.089-5.086,16.258-5.484,22.467-.43,4.107-3.42,9-6.1,7.977-1.173-.612-1.619-2.315-1.634-3.525v-.344a115.188,115.188,0,0,1,1.258-13.62,47.628,47.628,0,0,0,5.6-.563c.583-.089,1.5-3.19.316-3.133a42.2,42.2,0,0,1-5.493.655c.116-.764.417-2.762.417-2.762l.331-2.091V13.8c0-.768-.708-1.315-2.027-1.6l-.124-.03-.225.042-.224.1-.22.4-.43,2.626s-.415,2.616-.565,3.552c-5.847.306-11.882.393-12.87.474s.577,3.621,1.578,3.613M56.558,11.558c.637-1.356,1.452-.776,1.5.365-.007,5.765-2.992,13.24-4.168,15.828.272-11.022,2.632-16.129,2.671-16.193M69.025,37.452a22.091,22.091,0,0,1,.23-6.59c.323-1.991,2.076-3.608,2.911-3.225,1.015.551,1.059,2.015.854,3.683a8.877,8.877,0,0,1-3.994,6.132" transform="translate(-28.695 -3.569)"/><path class="b" d="M185.659,13.682c-1.341.157-5.388.955-10.006,1.534.1-.883.606-4.193.606-4.193a.568.568,0,0,0,.01-.071c0-.306-.236-.659-1.2-1.348-.92-.657-1.826-.791-2.081-.243-.142,1.568-.482,4.932-.627,6.265-4.559.528-8.63.951-9.625.986s-.039,3.533,1.353,3.426c0,0,6.059-.827,7.917-1.072-.334,12.015-3.023,14.656-5.107,14.028.864-4.5-.85-8.038-3.117-8.957-.959-.407-3.657-.365-4.146,3.619a6.745,6.745,0,0,0,4.057,7.25c-1.578,6.1-8.751,4.851-7.937-1.564.526-4.183,1.867-6.337,2.922-7.528,1.128-1.232,2.141-1.346,2.141-1.527.464-.245-.3-2.2-1.085-1.822-2.374,1.281-4.461,2.693-6.089,8.1-.686,2.641-1.713,6.122-2.606,7.352-.9,1.09-1.271.239-1.357-.235-.455-2.847.233-9.469.233-9.469,0-2.2-.148-4.6-1.991-5.264-2.6-.76-4.906,2.153-6.393,4.753.21-1.378.44-3.73.44-3.73l.017-.121c0-.22-.1-.63-.758-.934a5.594,5.594,0,0,0-2.388.153,19.9,19.9,0,0,1-.245,2.479c-.664,4.208-1.479,12.71-7.42,12.191-3.274-.19-6.891-4.853-8.018-6.755,6.548-2.921,10.2-6.7,10.61-7.353.42-.676-1.362-3.025-2-2.54a19.4,19.4,0,0,1-8.8,7.039c.1-1.22.479-5.769.495-5.909,2.737-5.024,6.113-12.191,6.113-16.773a4.908,4.908,0,0,0-1.484-3.677,3.4,3.4,0,0,0-3-.524c-2.156.849-3.121,2.634-3.749,7.535-.007.022-.855,8.382-.855,8.382s-.328,3.642-.376,4.185c-1.17,1.876-4.228,6.277-4.228,6.356-.393.483,1.163,2.852,1.927,1.908,0,0,2.518-4,2.466-4.031-.118,1.223-1.17,9.267-1.17,9.267l-.63,6.234-.1.942c0,.631.783.729,1.111.789.511.054,2.155.2,2.343-.665.005-.058.533-4.842.594-7.806,1.873,3.334,4.832,5.668,8.525,5.895a8.581,8.581,0,0,0,5.961-2.388c-.726,2.921-1.06,4.423-1.034,4.483-.073.719,2.194,1.211,2.548.85.595-.487,3.432-13.16,6.81-16.1.207-.168,1.725-1.492,1.725,1.09-.1,1.857-.281,3.843-.281,4.905,0,3.76.281,7.827,3.583,7.827,1.573-.028,2.485-.916,3.644-3.293a6.946,6.946,0,0,0,5.3,4.115c3.328.249,5.951-2.493,6.854-5.92a4.966,4.966,0,0,0,4.622-1.65c.02.776.045,1.546.045,1.546.061-.038.331,6.6,5.289,6.7,2.044.054,5.316-.941,7.867-5.135.353-.551-1.343-3.338-1.8-2.5-.661,1.886-3.247,5.24-6,4.893-5.354-1.008-1.72-14.936-.89-21.187,4.416-.632,9.764-1.4,10.34-1.583,1.1-.1,1.478-3.366.126-3.208m-61.9-3.282a27.664,27.664,0,0,1,.719-5.047c.365-1.22,1.089-1.324,1.468-1.239a1.6,1.6,0,0,1,1.228,1.794,21.819,21.819,0,0,1-1.245,5.118c-.659,1.954-1.963,4.776-2.711,6.712.218-2.109.378-5.194.541-7.337m39.938,16.488a7.42,7.42,0,0,1,.77,5.582c-2.045-.805-2.518-3.981-2.518-4.987.049-1.321,1.194-1.321,1.748-.595" transform="translate(-57.249 -1.093)"/></g></svg>