<svg xmlns="http://www.w3.org/2000/svg" width="197.82" height="35.074" viewBox="0 0 197.82 35.074"><defs><style>.a{fill:#040217;opacity:0.3;}</style></defs><path class="a" d="M152.186,267.5h-6.4v12.032c-.923-9-4.252-12.032-9.131-12.032-3.659,0-6.4,1.813-8.076,6.56-1.22-4.714-4.714-6.56-10.516-6.56h-6.4v12.032h-.165c-.923-9-4.252-12.032-9.131-12.032-4.714,0-8.076,3.033-9.131,12.032h-.165V267.5H84.84l-3.033,17.966h-.165l-2.6-17.966H70.5v6.857c-.758-4.121-3.2-6.857-7.78-6.857-5.044,0-7.78,3.494-8.241,7.911-1.385-5.934-4.417-7.911-8.373-7.911-4.417,0-7.615,2.6-8.834,10.054-.3-5.34-1.813-10.054-8.241-10.054-5.044,0-9.131,4.582-9.131,17.537,0,11.109,2.275,17.537,9.131,17.537,6.1,0,7.78-4.879,8.241-9.758,1.22,7.318,4.417,9.758,8.834,9.758,4.252,0,7.318-2.439,8.67-9.3.3,4.417,1.978,9.3,8.241,9.3,3.494,0,6.1-1.516,7.483-4.121v3.956h4.714V276.8h.165l4.252,25.613h3.494L87.378,276.8h.165v25.613H93.18V290.377h.165c.923,9,4.252,12.032,9.131,12.032,4.714,0,8.076-3.033,9.131-12.032h.165v12.032h6.4V288.4h2.6a7.547,7.547,0,0,0,6.692-3.2c0,13.12,3.659,17.207,9.3,17.207,4.714,0,8.076-3.033,9.131-12.032v12.032h14.471v-5.34h-8.076V267.5ZM32.13,289.158c-.165,4.879-.593,7.911-2.736,7.911-1.978,0-2.6-1.22-2.6-12.329,0-11.274,1.385-12.032,2.736-12.032,1.516,0,2.275,2.143,2.275,7.615l5.34-.165a45.09,45.09,0,0,0-.165,4.879,39.9,39.9,0,0,0,.165,4.582Zm16.449-.626c0,7.318-.923,8.67-2.275,8.67-1.516,0-2.275-1.516-2.275-8.67v-7.153c0-7.318.923-8.67,2.275-8.67,1.516,0,2.275,1.516,2.275,8.67Zm14.768,8.7c-2.736,0-2.736-3.362-2.736-5.175H55.139a49.431,49.431,0,0,0,.462-7.153,30.465,30.465,0,0,0-.165-3.956c2.736,6.263,10.68,8.076,10.68,13.12C66.116,295.223,65.49,297.234,63.347,297.234Zm-3.033-21.493c0-1.813.923-3.033,2.439-3.033,2.6,0,2.6,3.2,2.6,5.044H70.7v10.219C67.633,282.433,60.314,280.29,60.314,275.741Zm44.5,12.79c0,7.318-.923,8.834-2.275,8.834-1.516,0-2.275-1.516-2.275-8.834v-7.153c0-7.318.923-8.835,2.275-8.835,1.516,0,2.275,1.516,2.275,8.835Zm13.845-5.175h-.593V272.84h.461c2.143,0,4.121.165,4.121,5.175C122.65,282.3,121.266,283.356,118.662,283.356Zm20.273,5.175c0,7.318-.923,8.834-2.275,8.834-1.516,0-2.275-1.516-2.275-8.834v-7.153c0-7.318.923-8.835,2.275-8.835,1.516,0,2.275,1.516,2.275,8.835v7.153ZM161.35,267.5h6.4v34.909h-6.4Zm24.69,0H168.669v5.34h5.472v29.569h6.4V272.84h5.472V267.5m26.372,0v18.427h-.165l-5.8-18.427H200.15v30.492l-3.824-30.459h-9.3l-4.879,34.909h5.34l.923-7.78h5.241l.923,7.78h11.109v-21.2h.165l6.857,21.2h5.011V267.5Zm-23.141,22.086,1.978-16.746h.165l1.813,16.746Z" transform="translate(-19.9 -267.5)"/></svg>