<svg xmlns="http://www.w3.org/2000/svg" width="197.82" height="35.074" viewBox="0 0 197.82 35.074"><path d="M132.286 0h-6.4v12.032c-.923-9-4.252-12.032-9.131-12.032-3.659 0-6.4 1.813-8.076 6.56C107.459 1.846 103.965 0 98.163 0h-6.4v12.032h-.165C90.675 3.032 87.346 0 82.467 0c-4.714 0-8.076 3.033-9.131 12.032h-.165V0H64.94l-3.033 17.966h-.165L59.142 0H50.6v6.857C49.842 2.736 47.4 0 42.82 0c-5.044 0-7.78 3.494-8.241 7.911C33.194 1.977 30.162 0 26.206 0c-4.417 0-7.615 2.6-8.834 10.054C17.072 4.714 15.559 0 9.131 0 4.087 0 0 4.582 0 17.537c0 11.109 2.275 17.537 9.131 17.537 6.1 0 7.78-4.879 8.241-9.758 1.22 7.318 4.417 9.758 8.834 9.758 4.252 0 7.318-2.439 8.67-9.3.3 4.417 1.978 9.3 8.241 9.3 3.494 0 6.1-1.516 7.483-4.121v3.956h4.714V9.3h.165l4.252 25.613h3.494L67.478 9.3h.165v25.613h5.637V22.877h.165c.923 9 4.252 12.032 9.131 12.032 4.714 0 8.076-3.033 9.131-12.032h.165v12.032h6.4V20.9h2.6a7.547 7.547 0 006.692-3.2c0 13.12 3.659 17.207 9.3 17.207 4.714 0 8.076-3.033 9.131-12.032v12.032h14.471v-5.34h-8.076V0zM12.23 21.658c-.165 4.879-.593 7.911-2.736 7.911-1.978 0-2.6-1.22-2.6-12.329 0-11.274 1.385-12.032 2.736-12.032 1.516 0 2.275 2.143 2.275 7.615l5.34-.165a45.09 45.09 0 00-.165 4.879 39.9 39.9 0 00.165 4.582zm16.449-.626c0 7.318-.923 8.67-2.275 8.67-1.516 0-2.275-1.516-2.275-8.67v-7.153c0-7.318.923-8.67 2.275-8.67 1.516 0 2.275 1.516 2.275 8.67zm14.768 8.7c-2.736 0-2.736-3.362-2.736-5.175h-5.472a49.431 49.431 0 00.462-7.153 30.465 30.465 0 00-.165-3.956c2.736 6.263 10.68 8.076 10.68 13.12 0 1.155-.626 3.166-2.769 3.166zM40.414 8.239c0-1.813.923-3.033 2.439-3.033 2.6 0 2.6 3.2 2.6 5.044H50.8v10.219c-3.067-5.536-10.386-7.679-10.386-12.228zm44.5 12.79c0 7.318-.923 8.834-2.275 8.834-1.516 0-2.275-1.516-2.275-8.834v-7.153c0-7.318.923-8.835 2.275-8.835 1.516 0 2.275 1.516 2.275 8.835zm13.845-5.175h-.593V5.34h.461c2.143 0 4.121.165 4.121 5.175.002 4.285-1.382 5.341-3.986 5.341zm20.273 5.175c0 7.318-.923 8.834-2.275 8.834-1.516 0-2.275-1.516-2.275-8.834v-7.153c0-7.318.923-8.835 2.275-8.835 1.516 0 2.275 1.516 2.275 8.835v7.153zM141.45 0h6.4v34.909h-6.4zm24.69 0h-17.371v5.34h5.472v29.569h6.4V5.34h5.472V0m26.372 0v18.427h-.165L186.52 0h-6.27v30.492L176.426.033h-9.3l-4.879 34.909h5.34l.923-7.78h5.241l.923 7.78h11.109v-21.2h.165l6.857 21.2h5.011V0zm-23.141 22.086l1.978-16.746h.165l1.813 16.746z" fill="#040217" opacity=".3"/></svg>